<?xml version="1.0" encoding="utf-8"?>
<!-- Generator: Adobe Illustrator 22.0.0, SVG Export Plug-In . SVG Version: 6.00 Build 0)  -->
<svg version="1.1" id="x" xmlns="http://www.w3.org/2000/svg" xmlns:xlink="http://www.w3.org/1999/xlink" x="0px" y="0px"
	 viewBox="0 0 1003.2 880.6" style="enable-background:new 0 0 1003.2 880.6;" xml:space="preserve">
<style type="text/css">
	.st0{fill:#FF0000;}
	.st1{fill:#FFBB00;}
	.st2{stroke:#FFBB00;stroke-width:1.0001;}
	.st3{fill:#211414;stroke:#FFBB00;stroke-width:2;stroke-linecap:round;stroke-linejoin:round;}
	.st4{stroke:#000000;stroke-width:0.69;}
	.st5{stroke:#FFBB00;}
	.st6{fill:none;stroke:#000000;}
	.st7{stroke:#000000;stroke-width:1.0493;}
</style>
<g transform="translate(137.77483,156.49925)">

		<image style="overflow:visible;opacity:0.23;" width="1039" height="915" xlink:href="FAC1B53E2F8E2A4E.png"  transform="matrix(1 0 0 1 -155.7748 -167.9324)">
	</image>
	<g>

			<image style="overflow:visible;opacity:0.16;" width="1022" height="899" xlink:href="FAC1B53E2F8E2A4A.png"  transform="matrix(1 0 0 1 -146.7748 -162.9324)">
		</image>
		<g>
			<g>
				<path class="st0" d="M-86.4,724.1c-37.3-3.1-62.7-46.4-46.3-80.3c67.6-117.3,376-647.1,450.1-777.1c21.3-30.8,71.5-31.1,92.7,0
					C477.9-16.1,785,513.3,860.4,642.4c16,33.8-8.8,77.5-46.4,80.3C678.7,722.8,63.2,723.3-86.4,724.1L-86.4,724.1z"/>
				<path class="st1" d="M13.6,621.8l710.5-2.1L367-7.5L13.6,621.8L13.6,621.8z"/>
			</g>
		</g>
	</g>
</g>
<g transform="translate(161.83988,168.20657)">
	<path class="st2" d="M431.5,289.8l5.5,21.5l-60,15c-4,1-9.5-1.1-12.5-3.3c-0.9-0.7-2.8-1.3-6.1-0.5l-10.9,2l-1.1-5
		c6.8-1.9,8.6-1.6,11.1-3c2.2-0.5,3.7-1.7,4.6-2.8c2.2-2.8,4.7-7.8,9.4-9L431.5,289.8z"/>
	<g transform="translate(-2.1563,2.76571)">
		<path class="st3" d="M412.9,322.2c2.1,0.4,2-28.3,0.3-30.2c-5.2-5.5-18.9-0.4-23.1,5.2l4.4,24.8l-5.9,1.8l6.3,2.8L412.9,322.2z"/>
	</g>
</g>
<g transform="translate(137.77483,156.49925)">
	<path class="st4" d="M273.7,350.3l319.5,181.7c0.9,4.4-2.1,4.9-5.1,8.1L268.6,358.3c-11.9,20.3-12.4,23.2-24.1,44.6
		c-48.2-32.8-96.8-54.9-66.2-103.4s119.4,8.6,119.4,8.6S285.8,331.2,273.7,350.3L273.7,350.3z"/>
</g>
<g transform="translate(137.77483,156.49925)">
	<path class="st5" d="M305.9,357.4c-28.4,5.8-46.4,23.4-57.1,49.5c-15.1,27.7-32.6,63-20,108.3l9,24.2c17.4,41.4,48.5,32,78.5,5.4
		l51.4-89.4l-32.3,67.5l12.4,54.2l58-17.1c0,0-0.7-88.9,1.9-92.3c9.8-12.3-21.1-62.1-57.1-30.4l-47.6,51.4l41.9-72.3l72.3,20.9
		c0,0,13.7-0.8,20.2-15.1c12.3-27.5,3.5-87.2,3.5-87.2c-10.6,2.9-13.7,3.9-26.3,6.4c-3.7,0.8,0.7,54.1-5.9,53.2
		s-72.3-20.9-72.3-20.9c1.7-1.7,0.1-21,6.3-22c12.2-1.9,16.5,3.4,21.7-7.1c1.5-3,0-8.9,0.5-13.6c0.2-1.9,5.2-2,5.9-3.7
		c-4.8-11.3,0.4-13.9-3.5-21.5c-1.9-3.6-0.6-5.3-3.3-8.2c-0.3-1.6,16.1-3.6,17.5-5.4c0.2-0.2-0.2-1.8-2.7-2
		c-4.4-0.3-12.6,1-15.4,1.2c-3.5,0.2-3-5.3-10.3-15.1c-2.9-3.8-16.9-4.5-31.5-1.7c-6,1.2-18.4-0.7-23.3,4.9
		c-1.9,2.2-3.7,16.1-1.7,20.7c5.3,20.5-1.5,35.5,6.8,43.9C306.4,346.9,304.1,353.1,305.9,357.4L305.9,357.4L305.9,357.4z"/>
	<path class="st5" d="M364.9,574.4c0,0,20.7-7.1,26.6-8.1c2.1-0.4,3.2,26.6,3.2,26.6c7.9,4.3,19.8,2,31-0.7
		c17.6-4.2,33.4,6.3,21.8,26.9c-17.3,0.1-46.3-0.3-63.6-4.7l-0.7,5.4l-28.6-2.4c1.1-7.5-1.5-14.1,6.1-23.2L364.9,574.4z"/>
	<path class="st5" d="M528.5,556.2l16.5,21.6l26.8-2.4c20.1-18.2,33.4-16.5,43.7,3.6c0.1,2.8-46.3,26-47.9,22.5
		c-1.2-2.5,4.1,7,4.1,7l-32.1,11.9c-8.4-8.9-17.4-17.4-19.7-31.2l-15.6-23.4l24-11L528.5,556.2L528.5,556.2z"/>
	<path class="st5" d="M408.2,487.5l0,45.4l53.6-16.8c19.4,21.2,19.9,39.1,34.1,55.1l36.8-20.8l-47.4-66.6c-3.8-5-7.6-4.5-11.5-6.4
		L408.2,487.5L408.2,487.5z"/>
</g>
<g transform="translate(137.77483,156.49925)">
	<path class="st6" d="M291.2,612.5"/>
	<path class="st7" d="M325.5,622.6c-10.6-12.1-17.3-19.3-26.2-31.6c-4.4-6.1-6.1-16.2-14.4-21.1c-22.3-7.6-45.5-30.5-79.9-38
		c-4.5-21.2-7-15.3-15.9-28.2c-12.6-15.3-11.8-35.9-46.2-42.7c-5.3-18.5-16-15-26.4-19.7c-33,60.3-67.3,114.3-102.2,182.2
		L325.5,622.6z"/>
</g>
</svg>
